0
SECTION
2
HEADER
9
$INSUNITS
70
4
9
$ACADVER
1
AC1014
9
$HANDSEED
5
FFFF
0
ENDSEC
0
SECTION
2
TABLES
0
TABLE
2
VPORT
5
8
100
AcDbSymbolTable
0
ENDTAB
0
TABLE
2
LTYPE
5
5
100
AcDbSymbolTable
0
LTYPE
5
14
100
AcDbSymbolTableRecord
100
AcDbLinetypeTableRecord
2
BYBLOCK
70
0
0
LTYPE
5
15
100
AcDbSymbolTableRecord
100
AcDbLinetypeTableRecord
2
BYLAYER
70
0
0
ENDTAB
0
TABLE
2
LAYER
5
2
100
AcDbSymbolTable
70
2
0
LAYER
5
50
100
AcDbSymbolTableRecord
100
AcDbLayerTableRecord
2
0
70
0
6
CONTINUOUS
0
ENDTAB
0
TABLE
2
STYLE
5
3
100
AcDbSymbolTable
70
1
0
STYLE
5
11
100
AcDbSymbolTableRecord
100
AcDbTextStyleTableRecord
2
STANDARD
70
0
0
ENDTAB
0
TABLE
2
VIEW
5
6
100
AcDbSymbolTable
70
0
0
ENDTAB
0
TABLE
2
UCS
5
7
100
AcDbSymbolTable
70
0
0
ENDTAB
0
TABLE
2
APPID
5
9
100
AcDbSymbolTable
70
2
0
APPID
5
12
100
AcDbSymbolTableRecord
100
AcDbRegAppTableRecord
2
ACAD
70
0
0
ENDTAB
0
TABLE
2
DIMSTYLE
5
A
100
AcDbSymbolTable
70
1
0
ENDTAB
0
TABLE
2
BLOCK_RECORD
5
1
100
AcDbSymbolTable
70
1
0
BLOCK_RECORD
5
1F
100
AcDbSymbolTableRecord
100
AcDbBlockTableRecord
2
*MODEL_SPACE
0
BLOCK_RECORD
5
1B
100
AcDbSymbolTableRecord
100
AcDbBlockTableRecord
2
*PAPER_SPACE
0
ENDTAB
0
ENDSEC
0
SECTION
2
BLOCKS
0
BLOCK
5
20
100
AcDbEntity
100
AcDbBlockBegin
2
*MODEL_SPACE
0
ENDBLK
5
21
100
AcDbEntity
100
AcDbBlockEnd
0
BLOCK
5
1C
100
AcDbEntity
100
AcDbBlockBegin
2
*PAPER_SPACE
0
ENDBLK
5
1D
100
AcDbEntity
100
AcDbBlockEnd
0
ENDSEC
0
SECTION
2
ENTITIES
0
CIRCLE
5
100
100
AcDbEntity
8
0
100
AcDbCircle
10
10.5
20
-19.250000000000004
30
0
40
1.5999999999999992
210
0
220
0
230
1
0
CIRCLE
5
101
100
AcDbEntity
8
0
100
AcDbCircle
10
10.5
20
-80.750000000000014
30
0
40
1.5999999999999992
210
0
220
0
230
1
0
LWPOLYLINE
5
102
100
AcDbEntity
8
0
100
AcDbPolyline
90
4
70
1
43
0.0
10
-4
20
-71.000001490116119
10
-4.0000000000000018
20
-99.000001490116119
42
-0.99999999999999989
10
-6.0000000000000009
20
-99.000001490116119
10
-6
20
-71.000001490116119
42
-0.99999999999999989
0
CIRCLE
5
103
100
AcDbEntity
8
0
100
AcDbCircle
10
-10.5
20
-85.750000000000014
30
0
40
1.6000000000000014
210
0
220
0
230
1
0
LWPOLYLINE
5
104
100
AcDbEntity
8
0
100
AcDbPolyline
90
4
70
1
43
0.0
10
-6.0000000000000053
20
-28.999998549744493
42
0.99999999999999989
10
-4.0000000000000053
20
-28.99999854974449
10
-4.0000000000000044
20
-0.99999854974449431
42
0.99999999999999989
10
-6.0000000000000053
20
-0.99999854974449409
0
CIRCLE
5
105
100
AcDbEntity
8
0
100
AcDbCircle
10
-10.5
20
-14.250000000000004
30
0
40
1.6000000000000003
210
0
220
0
230
1
0
LWPOLYLINE
5
106
100
AcDbEntity
8
0
100
AcDbPolyline
90
4
70
1
43
0.0
10
3.9999999999999991
20
-28.999998549744493
10
4.0000000000000018
20
-0.99999854974449209
42
-0.99999999999999989
10
6.0000000000000009
20
-0.99999854974449431
10
6
20
-28.999998549744493
42
-0.99999999999999989
0
CIRCLE
5
107
100
AcDbEntity
8
0
100
AcDbCircle
10
10.5
20
-90.750000000000014
30
0
40
1.6000000000000014
210
0
220
0
230
1
0
LWPOLYLINE
5
108
100
AcDbEntity
8
0
100
AcDbPolyline
90
4
70
1
43
0.0
10
2
20
-72.000001490116119
10
2
20
-98.000001490116119
42
-0.99999999999999989
10
-2
20
-98.000001490116119
10
-2
20
-72.000001490116119
42
-0.99999999999999989
0
LWPOLYLINE
5
109
100
AcDbEntity
8
0
100
AcDbPolyline
90
4
70
1
43
0.0
10
6.0000000000000009
20
-71.000001490116119
42
0.99999999999999989
10
4.0000000000000018
20
-71.000001490116119
10
4
20
-99.000001490116119
42
0.99999999999999989
10
6.0000000000000009
20
-99.000001490116105
0
LWPOLYLINE
5
110
100
AcDbEntity
8
0
100
AcDbPolyline
90
4
70
1
43
0.0
10
-2.0000000000000018
20
-27.99999854974449
42
0.99999999999999989
10
1.9999999999999984
20
-27.999998549744486
10
2.0000000000000018
20
-1.9999985497444954
42
0.99999999999999989
10
-2.0000000000000018
20
-1.999998549744495
0
CIRCLE
5
111
100
AcDbEntity
8
0
100
AcDbCircle
10
10.5
20
-9.2500000000000036
30
0
40
1.5999999999999992
210
0
220
0
230
1
0
CIRCLE
5
112
100
AcDbEntity
8
0
100
AcDbCircle
10
-10
20
-103.5
30
0
40
1.4999999999999991
210
0
220
0
230
1
0
CIRCLE
5
113
100
AcDbEntity
8
0
100
AcDbCircle
10
10
20
-103.5
30
0
40
1.4999999999999991
210
0
220
0
230
1
0
CIRCLE
5
114
100
AcDbEntity
8
0
100
AcDbCircle
10
36.5
20
3.5000000000000142
30
0
40
1.4999999999999991
210
0
220
0
230
1
0
CIRCLE
5
115
100
AcDbEntity
8
0
100
AcDbCircle
10
36.5
20
-76.749999999999986
30
0
40
1.4999999999999991
210
0
220
0
230
1
0
CIRCLE
5
116
100
AcDbEntity
8
0
100
AcDbCircle
10
-10
20
3.5000000000000142
30
0
40
1.4999999999999991
210
0
220
0
230
1
0
CIRCLE
5
117
100
AcDbEntity
8
0
100
AcDbCircle
10
36.499999999999993
20
-49.999999999999993
30
0
40
1.4999999999999991
210
0
220
0
230
1
0
CIRCLE
5
118
100
AcDbEntity
8
0
100
AcDbCircle
10
-36.5
20
-50
30
0
40
1.5000000000000036
210
0
220
0
230
1
0
CIRCLE
5
119
100
AcDbEntity
8
0
100
AcDbCircle
10
-36.5
20
3.5000000000000142
30
0
40
1.4999999999999991
210
0
220
0
230
1
0
CIRCLE
5
120
100
AcDbEntity
8
0
100
AcDbCircle
10
-36.5
20
-23.249999999999993
30
0
40
1.4999999999999991
210
0
220
0
230
1
0
CIRCLE
5
121
100
AcDbEntity
8
0
100
AcDbCircle
10
-36.5
20
-103.5
30
0
40
1.5000000000000036
210
0
220
0
230
1
0
CIRCLE
5
122
100
AcDbEntity
8
0
100
AcDbCircle
10
10
20
3.5000000000000142
30
0
40
1.4999999999999991
210
0
220
0
230
1
0
CIRCLE
5
123
100
AcDbEntity
8
0
100
AcDbCircle
10
36.5
20
-23.249999999999993
30
0
40
1.4999999999999991
210
0
220
0
230
1
0
CIRCLE
5
124
100
AcDbEntity
8
0
100
AcDbCircle
10
36.5
20
-103.5
30
0
40
1.4999999999999991
210
0
220
0
230
1
0
CIRCLE
5
125
100
AcDbEntity
8
0
100
AcDbCircle
10
-36.5
20
-76.749999999999986
30
0
40
1.5000000000000036
210
0
220
0
230
1
0
LWPOLYLINE
5
126
100
AcDbEntity
8
0
100
AcDbPolyline
90
6
70
1
43
0.0
10
38.000000039860602
20
-107.00000003986061
42
0.41421355653564412
10
39.999999999999986
20
-105.00000003986061
10
39.999999999999986
20
5
42
0.41421356237309503
10
37.999999999999986
20
7.0000000000000018
10
-39.999999999999993
20
6.9999999999999929
10
-40
20
-107.00000159442425
0
ENDSEC
0
SECTION
2
OBJECTS
0
DICTIONARY
5
C
100
AcDbDictionary
3
ACAD_GROUP
350
D
3
ACAD_MLINESTYLE
350
17
0
DICTIONARY
5
D
100
AcDbDictionary
0
DICTIONARY
5
1A
330
C
100
AcDbDictionary
0
DICTIONARY
5
17
100
AcDbDictionary
0
ENDSEC
0
EOF
