0
SECTION
2
HEADER
9
$INSUNITS
70
4
9
$ACADVER
1
AC1014
9
$HANDSEED
5
FFFF
0
ENDSEC
0
SECTION
2
TABLES
0
TABLE
2
VPORT
5
8
100
AcDbSymbolTable
0
ENDTAB
0
TABLE
2
LTYPE
5
5
100
AcDbSymbolTable
0
LTYPE
5
14
100
AcDbSymbolTableRecord
100
AcDbLinetypeTableRecord
2
BYBLOCK
70
0
0
LTYPE
5
15
100
AcDbSymbolTableRecord
100
AcDbLinetypeTableRecord
2
BYLAYER
70
0
0
ENDTAB
0
TABLE
2
LAYER
5
2
100
AcDbSymbolTable
70
2
0
LAYER
5
50
100
AcDbSymbolTableRecord
100
AcDbLayerTableRecord
2
0
70
0
6
CONTINUOUS
0
ENDTAB
0
TABLE
2
STYLE
5
3
100
AcDbSymbolTable
70
1
0
STYLE
5
11
100
AcDbSymbolTableRecord
100
AcDbTextStyleTableRecord
2
STANDARD
70
0
0
ENDTAB
0
TABLE
2
VIEW
5
6
100
AcDbSymbolTable
70
0
0
ENDTAB
0
TABLE
2
UCS
5
7
100
AcDbSymbolTable
70
0
0
ENDTAB
0
TABLE
2
APPID
5
9
100
AcDbSymbolTable
70
2
0
APPID
5
12
100
AcDbSymbolTableRecord
100
AcDbRegAppTableRecord
2
ACAD
70
0
0
ENDTAB
0
TABLE
2
DIMSTYLE
5
A
100
AcDbSymbolTable
70
1
0
ENDTAB
0
TABLE
2
BLOCK_RECORD
5
1
100
AcDbSymbolTable
70
1
0
BLOCK_RECORD
5
1F
100
AcDbSymbolTableRecord
100
AcDbBlockTableRecord
2
*MODEL_SPACE
0
BLOCK_RECORD
5
1B
100
AcDbSymbolTableRecord
100
AcDbBlockTableRecord
2
*PAPER_SPACE
0
ENDTAB
0
ENDSEC
0
SECTION
2
BLOCKS
0
BLOCK
5
20
100
AcDbEntity
100
AcDbBlockBegin
2
*MODEL_SPACE
0
ENDBLK
5
21
100
AcDbEntity
100
AcDbBlockEnd
0
BLOCK
5
1C
100
AcDbEntity
100
AcDbBlockBegin
2
*PAPER_SPACE
0
ENDBLK
5
1D
100
AcDbEntity
100
AcDbBlockEnd
0
ENDSEC
0
SECTION
2
ENTITIES
0
LWPOLYLINE
5
100
100
AcDbEntity
8
0
100
AcDbPolyline
90
4
70
1
43
0.0
10
6.0000000000000009
20
-71.000001490116119
10
6.0000000000000018
20
-99.000001490116105
42
-0.99999999999999989
10
4
20
-99.000001490116105
10
4.000000000000008
20
-71.000001490116105
42
-0.99999999999999989
0
LWPOLYLINE
5
101
100
AcDbEntity
8
0
100
AcDbPolyline
90
4
70
1
43
0.0
10
-6.0000000000000009
20
-28.999998549744493
10
-6.0000000000000036
20
-0.99999854974449198
42
-0.99999999999999989
10
-3.9999999999999991
20
-0.9999985497444942
10
-3.9999999999999982
20
-28.9999985497445
42
-0.99999999999999989
0
LWPOLYLINE
5
102
100
AcDbEntity
8
0
100
AcDbPolyline
90
4
70
1
43
0.0
10
2
20
-72.000001490116119
10
2
20
-98.000001490116119
42
-0.99999999999999989
10
-2
20
-98.000001490116119
10
-2
20
-72.000001490116119
42
-0.99999999999999989
0
LWPOLYLINE
5
103
100
AcDbEntity
8
0
100
AcDbPolyline
90
4
70
1
43
0.0
10
4.0000000000000053
20
-28.99999854974449
10
4.0000000000000036
20
-0.99999854974449176
42
-0.99999999999999989
10
6.0000000000000053
20
-0.9999985497444942
10
6.0000000000000036
20
-28.999998549744497
42
-0.99999999999999989
0
LWPOLYLINE
5
104
100
AcDbEntity
8
0
100
AcDbPolyline
90
4
70
1
43
0.0
10
1.9999999999999984
20
-1.999998549744495
10
2.0000000000000022
20
-27.99999854974449
42
-0.99999999999999989
10
-2.0000000000000013
20
-27.99999854974449
10
-2.0000000000000018
20
-1.9999985497444916
42
-0.99999999999999989
0
LWPOLYLINE
5
105
100
AcDbEntity
8
0
100
AcDbPolyline
90
4
70
1
43
0.0
10
-6.0000000000000009
20
-99.000001490116105
10
-5.9999999999999929
20
-71.000001490116105
42
-0.99999999999999989
10
-4
20
-71.000001490116119
10
-3.9999999999999991
20
-99.000001490116105
42
-0.99999999999999989
0
CIRCLE
5
106
100
AcDbEntity
8
0
100
AcDbCircle
10
19.824999999999999
20
-50
30
0
40
3.0000000000000027
210
0
220
0
230
1
0
LWPOLYLINE
5
107
100
AcDbEntity
8
0
100
AcDbPolyline
90
4
70
1
43
0.0
10
22.000000327825546
20
-20.000000298023224
10
20.000000298023224
20
-20.000000298023224
10
20.000000298023224
20
-3.0000000447034836
10
22.000000327825546
20
-3.0000000447034836
0
CIRCLE
5
108
100
AcDbEntity
8
0
100
AcDbCircle
10
10
20
3.5000000000000142
30
0
40
1.4999999999999991
210
0
220
0
230
1
0
CIRCLE
5
109
100
AcDbEntity
8
0
100
AcDbCircle
10
-10
20
3.5000000000000142
30
0
40
1.4999999999999991
210
0
220
0
230
1
0
CIRCLE
5
110
100
AcDbEntity
8
0
100
AcDbCircle
10
-36.5
20
3.5000000000000142
30
0
40
1.4999999999999991
210
0
220
0
230
1
0
CIRCLE
5
111
100
AcDbEntity
8
0
100
AcDbCircle
10
-36.5
20
-23.249999999999993
30
0
40
1.4999999999999991
210
0
220
0
230
1
0
CIRCLE
5
112
100
AcDbEntity
8
0
100
AcDbCircle
10
-36.499999999999993
20
-49.999999999999993
30
0
40
1.4999999999999991
210
0
220
0
230
1
0
CIRCLE
5
113
100
AcDbEntity
8
0
100
AcDbCircle
10
-36.5
20
-76.749999999999986
30
0
40
1.4999999999999991
210
0
220
0
230
1
0
LWPOLYLINE
5
114
100
AcDbEntity
8
0
100
AcDbPolyline
90
3
70
1
43
0.0
10
23.000000342726707
20
-5.000000074505806
10
29.000000432133675
20
-10.000000149011612
10
23.000000342726707
20
-18.000000268220901
0
CIRCLE
5
115
100
AcDbEntity
8
0
100
AcDbCircle
10
29.824999999999999
20
-50
30
0
40
2.9999999999999982
210
0
220
0
230
1
0
CIRCLE
5
116
100
AcDbEntity
8
0
100
AcDbCircle
10
36.5
20
-76.749999999999986
30
0
40
1.5000000000000036
210
0
220
0
230
1
0
CIRCLE
5
117
100
AcDbEntity
8
0
100
AcDbCircle
10
36.5
20
-103.5
30
0
40
1.5000000000000036
210
0
220
0
230
1
0
CIRCLE
5
118
100
AcDbEntity
8
0
100
AcDbCircle
10
-10
20
-103.5
30
0
40
1.5000000000000002
210
0
220
0
230
1
0
CIRCLE
5
119
100
AcDbEntity
8
0
100
AcDbCircle
10
36.5
20
-50
30
0
40
1.5000000000000036
210
0
220
0
230
1
0
CIRCLE
5
120
100
AcDbEntity
8
0
100
AcDbCircle
10
-36.5
20
-103.5
30
0
40
1.4999999999999991
210
0
220
0
230
1
0
CIRCLE
5
121
100
AcDbEntity
8
0
100
AcDbCircle
10
36.5
20
3.5000000000000142
30
0
40
1.4999999999999991
210
0
220
0
230
1
0
CIRCLE
5
122
100
AcDbEntity
8
0
100
AcDbCircle
10
10
20
-103.5
30
0
40
1.4999999999999991
210
0
220
0
230
1
0
CIRCLE
5
123
100
AcDbEntity
8
0
100
AcDbCircle
10
36.5
20
-23.249999999999993
30
0
40
1.4999999999999991
210
0
220
0
230
1
0
LWPOLYLINE
5
124
100
AcDbEntity
8
0
100
AcDbPolyline
90
6
70
1
43
0.0
10
-39.999999999999993
20
-105.00000003986061
42
0.41421355653564479
10
-38.000000039860602
20
-107.00000003986061
10
40
20
-107.00000159442425
10
40
20
6.9999999999999929
10
-37.999999999999986
20
7.0000000000000009
42
0.41421356237309498
10
-39.999999999999993
20
4.9999999999999991
0
ENDSEC
0
SECTION
2
OBJECTS
0
DICTIONARY
5
C
100
AcDbDictionary
3
ACAD_GROUP
350
D
3
ACAD_MLINESTYLE
350
17
0
DICTIONARY
5
D
100
AcDbDictionary
0
DICTIONARY
5
1A
330
C
100
AcDbDictionary
0
DICTIONARY
5
17
100
AcDbDictionary
0
ENDSEC
0
EOF
